<?xml version="1.0" encoding="utf-8"?>
<!-- Generator: Adobe Illustrator 17.1.0, SVG Export Plug-In . SVG Version: 6.00 Build 0)  -->
<!DOCTYPE svg PUBLIC "-//W3C//DTD SVG 1.1//EN" "http://www.w3.org/Graphics/SVG/1.1/DTD/svg11.dtd">
<svg version="1.1" id="Layer_1" xmlns="http://www.w3.org/2000/svg" xmlns:xlink="http://www.w3.org/1999/xlink" x="0px" y="0px"
	 viewBox="0 0 170.7 51.5" enable-background="new 0 0 170.7 51.5" xml:space="preserve">
<g opacity="0.4">
	<path d="M1363.4,315.3h-8.4v-3.5l7.9-11.3h4.8v11.1h2.1v3.7h-2.1v3.3h-4.3V315.3z M1363.7,311.6v-6.4l-4.2,6.4H1363.7z"/>
	<path d="M1380.9,305.2c-0.3-1.2-0.9-1.9-2.1-1.9c-1.9,0-2.7,1.6-2.7,5.2c0.7-1.2,2.2-1.9,3.9-1.9c3.2,0,5.4,2.1,5.4,5.9
		c0,3.6-2.3,6.1-6.2,6.1c-5.5,0-6.9-3.9-6.9-9.4c0-6.3,2-9.4,6.7-9.4c3.9,0,5.7,2.6,5.9,5.3H1380.9z M1376.4,312.5
		c0,1.6,0.9,2.6,2.6,2.6c1.5,0,2.4-0.9,2.4-2.5c0-1.5-0.8-2.5-2.4-2.5C1377.5,310,1376.4,310.8,1376.4,312.5z"/>
	<path d="M1388.7,314.2h4.4l-3.2,8.1h-2.8L1388.7,314.2z"/>
	<path d="M1399.7,313.2c0.3,1.3,1,2,2.3,2c1.8,0,2.4-1.5,2.4-5c-0.7,1-2.1,1.6-3.6,1.6c-3.1,0-5.5-2-5.5-5.8c0-3.7,2.4-6.1,6.3-6.1
		c5.2,0,6.7,3.5,6.7,9.1c0,6.2-1.5,9.7-6.4,9.7c-4,0-5.9-2.6-6.1-5.4H1399.7z M1404,306c0-1.6-1-2.5-2.4-2.5c-1.5,0-2.4,1-2.4,2.5
		c0,1.4,0.8,2.4,2.5,2.4C1403.1,308.4,1404,307.5,1404,306z"/>
	<path d="M1415.1,313.2c0.3,1.3,1,2,2.3,2c1.8,0,2.4-1.5,2.4-5c-0.7,1-2.1,1.6-3.6,1.6c-3.1,0-5.5-2-5.5-5.8c0-3.7,2.4-6.1,6.3-6.1
		c5.2,0,6.7,3.5,6.7,9.1c0,6.2-1.5,9.7-6.4,9.7c-4,0-5.9-2.6-6.1-5.4H1415.1z M1419.4,306c0-1.6-1-2.5-2.4-2.5c-1.5,0-2.4,1-2.4,2.5
		c0,1.4,0.8,2.4,2.5,2.4C1418.5,308.4,1419.4,307.5,1419.4,306z"/>
	<path d="M1430.4,313.2c0.3,1.3,1,2,2.3,2c1.8,0,2.4-1.5,2.4-5c-0.7,1-2.1,1.6-3.6,1.6c-3.1,0-5.5-2-5.5-5.8c0-3.7,2.4-6.1,6.3-6.1
		c5.2,0,6.7,3.5,6.7,9.1c0,6.2-1.5,9.7-6.4,9.7c-4,0-5.9-2.6-6.1-5.4H1430.4z M1434.8,306c0-1.6-1-2.5-2.4-2.5c-1.5,0-2.4,1-2.4,2.5
		c0,1.4,0.8,2.4,2.5,2.4C1433.9,308.4,1434.8,307.5,1434.8,306z"/>
</g>
<g>
	<g>
		<path d="M76.3,19.6c3.6-2.9,7.3-5.8,7.3-8.7c0-1.2-0.6-2-1.7-2c-1.2,0-1.9,0.9-1.9,2.5h-3.8c0.1-4.1,2.8-5.8,5.8-5.8
			c3.8,0,5.5,2.2,5.5,5c0,3.7-3.3,6.6-5.9,8.6h6.2v3.2H76.3V19.6z"/>
		<path d="M97.8,19.8h-7.7v-3.2l7.2-10.4h4.4v10.1h1.9v3.4h-1.9v3h-3.9V19.8z M98.1,16.4v-5.8l-3.9,5.8H98.1z"/>
		<path d="M111.5,19.2l-2.1,3.6h-4.2l4.2-6.5l-4.3-6.3h4.4l2.5,3.5l2.1-3.5h4.2l-4.3,6.4l4.4,6.4h-4.4L111.5,19.2z"/>
		<path d="M130.6,6v2.9l-5.8,13.8h-4l5.8-13.4h-7.1V6H130.6z"/>
		<path d="M81.6,43.7c-2.9,0-5-1.6-5-4h2c0.1,1.2,1,2.4,3,2.4c1.8,0,2.9-1,2.9-2.4c0-3.9-7.9-1.4-7.9-6.8c0-2.4,1.9-4,4.8-4
			c2.8,0,4.6,1.5,4.8,3.7h-2.1c-0.1-1-1-2.1-2.8-2.1c-1.6,0-2.8,0.8-2.8,2.3c0,3.8,7.9,1.4,7.9,6.8C86.5,41.6,84.8,43.7,81.6,43.7z"
			/>
		<path d="M99.8,43.5h-1.9v-1.7c-0.7,1.2-2.1,1.9-3.7,1.9c-2.6,0-4.7-1.6-4.7-4.9v-6.7h1.9v6.5c0,2.3,1.3,3.5,3.2,3.5
			c2,0,3.3-1.2,3.3-3.7v-6.3h1.9V43.5z"/>
		<path d="M109.7,31.9c3.1,0,5.4,2.3,5.4,5.9c0,3.6-2.4,6-5.4,6c-2.1,0-3.6-1.1-4.3-2.3V49h-1.9V32.1h1.9v2.1
			C106.1,33,107.6,31.9,109.7,31.9z M109.3,33.5c-2.1,0-3.9,1.6-3.9,4.2c0,2.7,1.8,4.3,3.9,4.3c2.1,0,3.9-1.6,3.9-4.3
			C113.1,35.1,111.4,33.5,109.3,33.5z"/>
		<path d="M124.2,31.9c3.1,0,5.4,2.3,5.4,5.9c0,3.6-2.4,6-5.4,6c-2.1,0-3.6-1.1-4.3-2.3V49H118V32.1h1.9v2.1
			C120.6,33,122.1,31.9,124.2,31.9z M123.8,33.5c-2.1,0-3.9,1.6-3.9,4.2c0,2.7,1.8,4.3,3.9,4.3c2.1,0,3.9-1.6,3.9-4.3
			C127.7,35.1,125.9,33.5,123.8,33.5z"/>
		<path d="M137.5,43.7c-3.2,0-5.7-2.3-5.7-5.9c0-3.6,2.5-5.9,5.8-5.9c3.3,0,5.8,2.3,5.8,5.9C143.4,41.4,140.8,43.7,137.5,43.7z
			 M137.5,42c2,0,3.9-1.4,3.9-4.3c0-2.9-1.9-4.2-3.9-4.2c-2,0-3.8,1.4-3.8,4.2C133.8,40.7,135.6,42,137.5,42z"/>
		<path d="M148.2,43.5h-1.9V32.1h1.9v1.9c0.6-1.3,1.9-2.1,3.7-2.1v2h-0.5c-1.8,0-3.2,0.8-3.2,3.5V43.5z"/>
		<path d="M155,33.7h-1.5v-1.6h1.5v-2.9h1.9v2.9h3v1.6h-3v6.7c0,1.1,0.4,1.5,1.6,1.5h1.4v1.6h-1.7c-2,0-3.2-0.8-3.2-3.1V33.7z"/>
	</g>
	<g>
		<g>
			<path d="M33.4,11.4c-3.6,0-7.1,1.4-9.7,4c-2.6,2.6-4,6.1-4,9.7s1.4,7.1,4,9.7c2.6,2.6,6.1,4,9.7,4s7.1-1.4,9.7-4
				c2.6-2.6,4-6.1,4-9.7c0-3.6-1.4-7.1-4-9.7C40.5,12.8,37,11.4,33.4,11.4L33.4,11.4z M33.4,35.6c-2.8,0-5.4-1.1-7.4-3.1
				s-3.1-4.6-3.1-7.4s1.1-5.4,3.1-7.4s4.6-3.1,7.4-3.1s5.4,1.1,7.4,3.1c2,2,3.1,4.6,3.1,7.4c0,2.8-1.1,5.4-3.1,7.4
				C38.8,34.5,36.2,35.6,33.4,35.6z"/>
			<path d="M52.7,17.8h-1.1c-1.3-3.8-3.8-7-7.1-9.3c-3.3-2.3-7.2-3.5-11.2-3.5s-7.9,1.2-11.2,3.5c-3.3,2.3-5.7,5.6-7.1,9.3H14
				c-0.9,0-1.7,0.3-2.3,0.9c-0.6,0.6-0.9,1.4-0.9,2.3v6.4c0,0.9,0.3,1.7,0.9,2.3c0.6,0.6,1.4,0.9,2.3,0.9v3.2c0,3.4,1.4,6.7,3.8,9.1
				s5.7,3.8,9.1,3.8h0.3c0.3,0.9,0.9,1.8,1.8,2.3c0.8,0.6,1.8,0.9,2.8,0.9H35c1.7,0,3.3-0.9,4.2-2.4c0.9-1.5,0.9-3.3,0-4.8
				c-0.9-1.5-2.5-2.4-4.2-2.4h-3.2c-1,0-2,0.3-2.8,0.9c-0.8,0.6-1.4,1.4-1.8,2.3h-0.3c-2.6,0-5-1-6.8-2.8c-1.8-1.8-2.8-4.3-2.8-6.8
				v-4.8c0-0.4-0.2-0.8-0.5-1.1c-0.3-0.3-0.7-0.5-1.1-0.5H14v-6.4h2.3c0.3,0,0.7-0.1,1-0.3c0.3-0.2,0.5-0.5,0.6-0.8
				c1-3.4,3-6.3,5.8-8.5c2.8-2.1,6.2-3.3,9.7-3.3s6.9,1.1,9.7,3.3c2.8,2.1,4.8,5.1,5.8,8.5c0.1,0.3,0.3,0.6,0.6,0.8
				c0.3,0.2,0.6,0.3,1,0.3l0,0h2.3v6.4h-2.3c-0.6,0-1.1,0.3-1.4,0.8c-0.3,0.5-0.3,1.1,0,1.6c0.3,0.5,0.8,0.8,1.4,0.8h2.3
				c0.9,0,1.7-0.3,2.3-0.9c0.6-0.6,0.9-1.4,0.9-2.3v-6.4c0-0.9-0.3-1.7-0.9-2.3S53.6,17.8,52.7,17.8L52.7,17.8z M31.8,43.6H35
				c0.6,0,1.1,0.3,1.4,0.8s0.3,1.1,0,1.6s-0.8,0.8-1.4,0.8h-3.2c-0.6,0-1.1-0.3-1.4-0.8c-0.3-0.5-0.3-1.1,0-1.6
				C30.7,43.9,31.2,43.6,31.8,43.6z"/>
		</g>
	</g>
</g>
<g>
</g>
<g>
</g>
<g>
</g>
<g>
</g>
<g>
</g>
</svg>
