<?xml version="1.0" encoding="utf-8"?>
<!-- Generator: Adobe Illustrator 17.1.0, SVG Export Plug-In . SVG Version: 6.00 Build 0)  -->
<!DOCTYPE svg PUBLIC "-//W3C//DTD SVG 1.1//EN" "http://www.w3.org/Graphics/SVG/1.1/DTD/svg11.dtd">
<svg version="1.1" id="Layer_1" xmlns="http://www.w3.org/2000/svg" xmlns:xlink="http://www.w3.org/1999/xlink" x="0px" y="0px"
	 viewBox="0 0 235.5 137.8" enable-background="new 0 0 235.5 137.8" xml:space="preserve">
<path fill="#805522" d="M76.2,49.5c-0.9-12.4,5.7-15.3,14.1-18.1C92.2,42.8,84.7,47.6,76.2,49.5z M63.5,48.6c5.4,0,10,4.5,13.6,4.5
	c4.1-0.2,10-4.5,15.4-4.5s10.9,3.6,13.6,7.3c-5.4,4.5-10,10-10,15.4c0,8.2,4.5,10.9,10.9,15.4c-1.8,10-10,20.8-17.2,20.8
	c-5.4,0-9.1-3.6-12.7-3.6c-3.6,0-8.2,3.6-13.6,3.6c-7.3,0-19.9-19-19.9-38.1C43.5,55.9,55.3,48.6,63.5,48.6L63.5,48.6z"/>
<g>
</g>
<g>
</g>
<g>
</g>
<g>
</g>
<g>
</g>
</svg>
