<?xml version="1.0" encoding="utf-8"?>
<!-- Generator: Adobe Illustrator 17.1.0, SVG Export Plug-In . SVG Version: 6.00 Build 0)  -->
<!DOCTYPE svg PUBLIC "-//W3C//DTD SVG 1.1//EN" "http://www.w3.org/Graphics/SVG/1.1/DTD/svg11.dtd">
<svg version="1.1" id="Layer_1" xmlns="http://www.w3.org/2000/svg" xmlns:xlink="http://www.w3.org/1999/xlink" x="0px" y="0px"
	 viewBox="0 0 67 80.3" enable-background="new 0 0 67 80.3" xml:space="preserve">
<path fill="#805522" d="M34.6,20.2C33.6,7.8,40.2,4.9,48.7,2.1C50.6,13.5,43,18.3,34.6,20.2z M21.8,19.3c5.4,0,10,4.5,13.6,4.5
	c4.1-0.2,10-4.5,15.4-4.5s10.9,3.6,13.6,7.3c-5.4,4.5-10,10-10,15.4c0,8.2,4.5,10.9,10.9,15.4c-1.8,10-10,20.8-17.2,20.8
	c-5.4,0-9.1-3.6-12.7-3.6s-8.2,3.6-13.6,3.6c-7.3,0-19.9-19-19.9-38.1C1.9,26.5,13.6,19.3,21.8,19.3L21.8,19.3z"/>
<g>
</g>
<g>
</g>
<g>
</g>
<g>
</g>
<g>
</g>
</svg>
