<?xml version="1.0" encoding="utf-8"?>
<!-- Generator: Adobe Illustrator 17.1.0, SVG Export Plug-In . SVG Version: 6.00 Build 0)  -->
<!DOCTYPE svg PUBLIC "-//W3C//DTD SVG 1.1//EN" "http://www.w3.org/Graphics/SVG/1.1/DTD/svg11.dtd">
<svg version="1.1" id="Layer_1" xmlns="http://www.w3.org/2000/svg" xmlns:xlink="http://www.w3.org/1999/xlink" x="0px" y="0px"
	 viewBox="0 0 109.5 60" enable-background="new 0 0 109.5 60" xml:space="preserve">
<g>
	<g>
		<path fill="#565A5E" d="M69.2,7c0-2.9-2.4-5.3-5.3-5.3H7.7C4.8,1.7,2.5,4.1,2.5,7v28.1h66.7L69.2,7z"/>
		<path fill="#565A5E" d="M48.1,50.4v-3h15.8c2.9,0,5.3-2.4,5.3-5.3v-3.5H2.5v3.5c0,2.9,2.4,5.3,5.3,5.3h15.8v3l-3.2,4.8
			c-0.4,0.5-0.4,1.2-0.1,1.8c0.3,0.6,0.9,0.9,1.5,0.9h28.1c0.6,0,1.2-0.4,1.5-0.9c0.3-0.6,0.3-1.3-0.1-1.8L48.1,50.4z"/>
		<g>
			<path fill="#565A5E" d="M102,8.9h-7.9v9.5c0,4.4-3.6,7.9-7.9,7.9l-7.9,0v26.9c0,2.6,2.1,4.7,4.7,4.7h19c2.6,0,4.7-2.1,4.7-4.7
				l0-39.6C106.8,11,104.7,8.9,102,8.9L102,8.9z M94.1,51.6H91v-3.2h3.2V51.6z M92.5,45.3c-2.6,0-4.7-2.1-4.7-4.7
				c0-2.6,2.1-4.7,4.7-4.7s4.7,2.1,4.7,4.7C97.3,43.1,95.2,45.3,92.5,45.3z"/>
			<path fill="#565A5E" d="M106.8,13.6v17.2H78.3V13.6c0-2.6,2.1-4.7,4.7-4.7h19C104.7,8.9,106.8,11,106.8,13.6z"/>
		</g>
	</g>
</g>
<g>
</g>
<g>
</g>
<g>
</g>
<g>
</g>
<g>
</g>
</svg>
