<?xml version="1.0" encoding="utf-8"?>
<!-- Generator: Adobe Illustrator 17.1.0, SVG Export Plug-In . SVG Version: 6.00 Build 0)  -->
<!DOCTYPE svg PUBLIC "-//W3C//DTD SVG 1.1//EN" "http://www.w3.org/Graphics/SVG/1.1/DTD/svg11.dtd">
<svg version="1.1" id="Layer_1" xmlns="http://www.w3.org/2000/svg" xmlns:xlink="http://www.w3.org/1999/xlink" x="0px" y="0px"
	 viewBox="0 0 172.9 172.9" enable-background="new 0 0 172.9 172.9" xml:space="preserve">
<g>
	<rect x="1652.4" y="-55" fill="#EBE9F4" width="741" height="272.5"/>
</g>
<g>
	<g>
		<g>
			<path fill="#523D4E" d="M1915.7,27.4h15.8v3h-12.1v9.4h9.8v3h-9.8v12.6h-3.6V27.4z"/>
			<path fill="#523D4E" d="M1945.4,55.7c-6.2,0-10.9-4.4-10.9-11.4c0-6.9,4.9-11.3,11.1-11.3c6.2,0,11.1,4.4,11.1,11.3
				C1956.6,51.3,1951.6,55.7,1945.4,55.7z M1945.4,52.5c3.8,0,7.5-2.6,7.5-8.2c0-5.5-3.6-8.1-7.4-8.1c-3.8,0-7.3,2.6-7.3,8.1
				C1938.2,49.9,1941.6,52.5,1945.4,52.5z"/>
			<path fill="#523D4E" d="M1965.1,55.3h-3.6V33.4h3.6v3.6c1.2-2.4,3.6-4,7.1-4v3.8h-1c-3.5,0-6.1,1.6-6.1,6.6V55.3z"/>
			<path fill="#523D4E" d="M1995.9,55.6c-5.6,0-9.6-3.1-9.6-7.7h3.9c0.2,2.3,1.9,4.6,5.8,4.6c3.5,0,5.6-2,5.6-4.6
				c0-7.5-15.1-2.7-15.1-13.1c0-4.6,3.7-7.7,9.2-7.7c5.3,0,8.8,2.9,9.2,7.2h-4c-0.2-1.9-2-4-5.4-4c-3-0.1-5.4,1.5-5.4,4.5
				c0,7.2,15,2.7,15,13C2005.2,51.7,2001.9,55.6,1995.9,55.6z"/>
			<path fill="#523D4E" d="M2030,55.3h-3.6v-3.2c-1.4,2.3-4.1,3.6-7,3.6c-5,0-9-3.1-9-9.4V33.4h3.6v12.4c0,4.4,2.4,6.7,6.1,6.7
				c3.8,0,6.3-2.3,6.3-7v-12h3.6V55.3z"/>
			<path fill="#523D4E" d="M2048,33c5.9,0,10.4,4.4,10.4,11.2c0,6.8-4.5,11.4-10.4,11.4c-4,0-6.8-2.2-8.2-4.4v14.4h-3.6V33.4h3.6v4
				C2041.1,35.1,2044,33,2048,33z M2047.2,36.2c-4,0-7.4,3-7.4,8.1c0,5.2,3.5,8.2,7.4,8.2c4,0,7.4-3,7.4-8.2
				S2051.2,36.2,2047.2,36.2z"/>
			<path fill="#523D4E" d="M2075,33c5.9,0,10.4,4.4,10.4,11.2c0,6.8-4.5,11.4-10.4,11.4c-4,0-6.8-2.2-8.2-4.4v14.4h-3.6V33.4h3.6v4
				C2068.1,35.1,2071,33,2075,33z M2074.2,36.2c-4,0-7.4,3-7.4,8.1c0,5.2,3.5,8.2,7.4,8.2c4,0,7.4-3,7.4-8.2
				S2078.3,36.2,2074.2,36.2z"/>
			<path fill="#523D4E" d="M2099.8,55.7c-6.2,0-10.9-4.4-10.9-11.4c0-6.9,4.9-11.3,11.1-11.3c6.2,0,11.1,4.4,11.1,11.3
				C2111,51.3,2106,55.7,2099.8,55.7z M2099.8,52.5c3.8,0,7.5-2.6,7.5-8.2c0-5.5-3.6-8.1-7.4-8.1c-3.8,0-7.3,2.6-7.3,8.1
				C2092.6,49.9,2096,52.5,2099.8,52.5z"/>
			<path fill="#523D4E" d="M2119.4,55.3h-3.6V33.4h3.6v3.6c1.2-2.4,3.6-4,7.1-4v3.8h-1c-3.5,0-6.1,1.6-6.1,6.6V55.3z"/>
			<path fill="#523D4E" d="M2131.5,36.4h-2.8v-3h2.8v-5.5h3.6v5.5h5.7v3h-5.7v12.9c0,2.2,0.8,2.9,3,2.9h2.7v3.1h-3.3
				c-3.9,0-6.1-1.6-6.1-6V36.4z"/>
		</g>
	</g>
	<g>
		<g>
			<path fill="#523D4E" d="M1925.7,117.4c0.6,2.9,2.2,4.5,5.3,4.5c4.1,0,5.5-3.5,5.5-11.4c-1.7,2.3-4.7,3.7-8.3,3.7
				c-7.1,0-12.6-4.5-12.6-13.3c0-8.5,5.5-13.9,14.3-13.9c11.9,0,15.2,8.1,15.2,20.7c0,14.2-3.3,22.1-14.5,22.1
				c-9.1,0-13.5-6-13.9-12.4H1925.7z M1935.7,101c0-3.7-2.2-5.7-5.5-5.7c-3.4,0-5.4,2.2-5.4,5.7c0,3.1,1.8,5.5,5.7,5.5
				C1933.6,106.5,1935.7,104.4,1935.7,101z"/>
			<path fill="#523D4E" d="M1953.8,97h-5.7v-9.1h15.8v41.7h-10.2V97z"/>
			<path fill="#523D4E" d="M2018.1,88v7.3l-14.3,34.4h-10l14.5-33.3h-17.8V88H2018.1z"/>
			<path fill="#523D4E" d="M2022.4,98.2c0-5.9,4.6-11.2,14.5-11.2s14.4,5.3,14.4,11.2c0,4.3-2.2,7.3-5.4,9c4.1,1.9,6.4,5.4,6.4,10.2
				c0,8.3-6.9,13-15.4,13s-15.4-4.7-15.4-13c0-4.7,2.3-8.3,6.3-10.2C2024.5,105.5,2022.4,102.6,2022.4,98.2z M2030.8,116.9
				c0,3.1,2.2,5.5,6,5.5c3.7,0,5.9-2.4,5.9-5.5c0-3.4-2.4-5.5-5.9-5.5C2033.3,111.4,2030.8,113.4,2030.8,116.9z M2041.7,99.7
				c0-3.1-2-4.9-4.9-4.9s-4.9,1.8-4.9,5c0,3,2.1,4.8,4.9,4.8S2041.7,102.8,2041.7,99.7z"/>
			<path fill="#523D4E" d="M2083.4,88v7.3l-14.3,34.4h-10l14.5-33.3h-17.8V88H2083.4z"/>
			<path fill="#523D4E" d="M2102.3,87c11.9,0,16.1,8.9,16.1,21.1c0,12.3-4.2,21.3-16.1,21.3s-16.1-8.9-16.1-21.3
				C2086.2,96,2090.4,87,2102.3,87z M2102.3,96.2c-5.8,0-6.5,5.6-6.5,12c0,6.6,0.7,12.1,6.5,12.1s6.5-5.5,6.5-12.1
				C2108.7,101.8,2108,96.2,2102.3,96.2z"/>
			<path fill="#523D4E" d="M2136.9,86.9c8.8,0,13.5,5,13.5,11.3c0,5.5-3.4,8.4-6.3,9.4v0.2c4.2,1.4,7,4.6,7,10.1
				c0,7-5,12.1-13.8,12.1c-8.7,0-15-4.1-15.3-13.5h9.5c0.1,3.3,1.8,5.4,5.4,5.4c3,0,4.7-1.9,4.7-4.7c0-3.7-2.2-5.2-7.3-5.2h-1.8V104
				h1.8c3.3,0,6.5-0.8,6.5-4.6c0-2.8-1.7-4.3-4.3-4.3c-3.1,0-4.3,2.3-4.5,4.6h-9.5C2123,91.4,2128.4,86.9,2136.9,86.9z"/>
			<path fill="#523D4E" d="M2176.4,99.2c-0.6-2.7-1.9-4.2-4.9-4.2c-4.4,0-6.1,3.7-6.2,11.8c1.7-2.7,5-4.3,8.9-4.3
				c7.3,0,12.4,4.7,12.4,13.4c0,8.3-5.3,14-14.2,14c-12.6,0-15.7-8.9-15.7-21.4c0-14.3,4.5-21.4,15.3-21.4c9,0,13,5.9,13.5,12.1
				H2176.4z M2166.1,115.7c0,3.7,2.1,5.8,5.8,5.8c3.3,0,5.4-2.1,5.4-5.7c0-3.5-1.9-5.8-5.5-5.8
				C2168.8,110.1,2166.1,112,2166.1,115.7z"/>
			<path fill="#523D4E" d="M2192.5,98.2c0-5.9,4.6-11.2,14.5-11.2s14.4,5.3,14.4,11.2c0,4.3-2.2,7.3-5.4,9c4.1,1.9,6.4,5.4,6.4,10.2
				c0,8.3-6.9,13-15.4,13s-15.4-4.7-15.4-13c0-4.7,2.3-8.3,6.3-10.2C2194.6,105.5,2192.5,102.6,2192.5,98.2z M2200.9,116.9
				c0,3.1,2.2,5.5,6,5.5c3.7,0,5.9-2.4,5.9-5.5c0-3.4-2.4-5.5-5.9-5.5C2203.4,111.4,2200.9,113.4,2200.9,116.9z M2211.8,99.7
				c0-3.1-2-4.9-4.9-4.9s-4.9,1.8-4.9,5c0,3,2.1,4.8,4.9,4.8S2211.8,102.8,2211.8,99.7z"/>
			<path fill="#523D4E" d="M2247.5,99.2c-0.6-2.7-1.9-4.2-4.9-4.2c-4.4,0-6.1,3.7-6.2,11.8c1.7-2.7,5-4.3,8.9-4.3
				c7.3,0,12.4,4.7,12.4,13.4c0,8.3-5.3,14-14.2,14c-12.6,0-15.7-8.9-15.7-21.4c0-14.3,4.5-21.4,15.3-21.4c9,0,13,5.9,13.5,12.1
				H2247.5z M2237.3,115.7c0,3.7,2.1,5.8,5.8,5.8c3.3,0,5.4-2.1,5.4-5.7c0-3.5-1.9-5.8-5.5-5.8
				C2239.9,110.1,2237.3,112,2237.3,115.7z"/>
			<path fill="#523D4E" d="M2266.8,97h-5.7v-9.1h15.8v41.7h-10.2V97z"/>
			<path fill="#523D4E" d="M2282.1,121.8c8.9-7.3,18.3-14.6,18.3-21.6c0-3-1.4-5-4.3-5c-2.9,0-4.6,2.3-4.6,6.2h-9.4
				c0.3-10.1,6.9-14.5,14.5-14.5c9.5,0,13.7,5.5,13.7,12.6c0,9.1-8.2,16.5-14.8,21.5h15.4v7.9h-28.7V121.8z"/>
		</g>
	</g>
</g>
<g>
	<rect x="1700.2" y="280.4" fill="#E3F4FC" width="741" height="272.5"/>
</g>
<g>
	<g>
		<path fill="#565A5E" d="M1965.7,362.8h15.8v3h-12.1v9.4h9.8v3h-9.8v12.6h-3.6V362.8z"/>
		<path fill="#565A5E" d="M1995.4,391.1c-6.2,0-10.9-4.4-10.9-11.4c0-6.9,4.9-11.3,11.1-11.3c6.2,0,11.1,4.4,11.1,11.3
			C2006.7,386.7,2001.7,391.1,1995.4,391.1z M1995.4,387.9c3.8,0,7.5-2.6,7.5-8.2c0-5.5-3.6-8.1-7.4-8.1c-3.8,0-7.3,2.6-7.3,8.1
			C1988.2,385.3,1991.6,387.9,1995.4,387.9z"/>
		<path fill="#565A5E" d="M2015.1,390.7h-3.6v-21.9h3.6v3.6c1.2-2.4,3.6-4,7.1-4v3.8h-1c-3.5,0-6.1,1.6-6.1,6.6V390.7z"/>
		<path fill="#565A5E" d="M2052.1,365.8h-11.4v9.3h10.2v3h-10.2v9.6h11.4v3h-15v-27.9h15V365.8z"/>
		<path fill="#565A5E" d="M2073.6,378.3c0-4.5-2.4-6.8-6.1-6.8c-3.7,0-6.3,2.3-6.3,7v12.1h-3.6v-21.9h3.6v3.1c1.4-2.3,4.1-3.5,7-3.5
			c5.1,0,9,3.1,9,9.4v12.9h-3.6V378.3z"/>
		<path fill="#565A5E" d="M2092.3,368.4c4,0,6.9,2.1,8.1,4.4v-4h3.7v32.3h-3.7v-14.4c-1.2,2.2-4.2,4.4-8.2,4.4
			c-5.8,0-10.3-4.6-10.3-11.4C2081.8,372.8,2086.4,368.4,2092.3,368.4z M2093,371.6c-4,0-7.4,2.9-7.4,8.1c0,5.2,3.4,8.2,7.4,8.2
			s7.4-3,7.4-8.2C2100.4,374.6,2097,371.6,2093,371.6z"/>
		<path fill="#565A5E" d="M2129.7,390.7h-3.6v-3.2c-1.4,2.3-4.1,3.6-7,3.6c-5,0-9-3.1-9-9.4v-12.8h3.6v12.4c0,4.4,2.4,6.7,6.1,6.7
			c3.8,0,6.3-2.3,6.3-7v-12h3.6V390.7z"/>
		<path fill="#565A5E" d="M2139.5,390.7h-3.6v-21.9h3.6v3.6c1.2-2.4,3.6-4,7.1-4v3.8h-1c-3.5,0-6.1,1.6-6.1,6.6V390.7z"/>
		<path fill="#565A5E" d="M2150.2,362.8c0-1.4,1.1-2.5,2.5-2.5c1.3,0,2.4,1.1,2.4,2.5c0,1.4-1.1,2.5-2.4,2.5
			C2151.2,365.2,2150.2,364.2,2150.2,362.8z M2150.8,368.8h3.6v21.9h-3.6V368.8z"/>
		<path fill="#565A5E" d="M2170.1,391.1c-6.2,0-10.8-4.4-10.8-11.4c0-6.9,4.4-11.3,10.8-11.3c6.4,0,10.5,4.5,10.5,10.5
			c0,0.8,0,1.4-0.1,2.2H2163c0.3,4.4,3.4,6.9,7.1,6.9c3.3,0,5.4-1.7,6.2-4h3.9C2179,388,2175.5,391.1,2170.1,391.1z M2163,378.2
			h13.8c0-4.3-3.2-6.6-6.9-6.6C2166.4,371.5,2163.4,373.9,2163,378.2z"/>
	</g>
	<g>
		<path fill="#565A5E" d="M1975.7,452.8c0.6,2.9,2.2,4.5,5.3,4.5c4.1,0,5.5-3.5,5.5-11.4c-1.7,2.3-4.7,3.7-8.3,3.7
			c-7.1,0-12.6-4.5-12.6-13.3c0-8.5,5.5-13.9,14.3-13.9c11.9,0,15.2,8.1,15.2,20.7c0,14.2-3.3,22.1-14.5,22.1
			c-9.1,0-13.5-6-13.9-12.4H1975.7z M1985.7,436.5c0-3.7-2.2-5.7-5.5-5.7c-3.4,0-5.4,2.2-5.4,5.7c0,3.1,1.8,5.5,5.7,5.5
			C1983.7,441.9,1985.7,439.8,1985.7,436.5z"/>
		<path fill="#565A5E" d="M2003.8,432.4h-5.7v-9.1h15.8V465h-10.2V432.4z"/>
		<path fill="#565A5E" d="M2068.1,423.4v7.3l-14.3,34.4h-10l14.5-33.3h-17.8v-8.3H2068.1z"/>
		<path fill="#565A5E" d="M2072.4,433.7c0-5.9,4.6-11.2,14.5-11.2s14.4,5.3,14.4,11.2c0,4.3-2.2,7.3-5.4,9c4.1,1.9,6.4,5.4,6.4,10.2
			c0,8.3-6.9,13-15.4,13s-15.4-4.7-15.4-13c0-4.7,2.3-8.3,6.3-10.2C2074.6,440.9,2072.4,438.1,2072.4,433.7z M2080.9,452.4
			c0,3.1,2.2,5.5,6,5.5c3.7,0,5.9-2.4,5.9-5.5c0-3.4-2.4-5.5-5.9-5.5C2083.4,446.9,2080.9,448.8,2080.9,452.4z M2091.8,435.2
			c0-3.1-2-4.9-4.9-4.9s-4.9,1.8-4.9,5c0,3,2.1,4.8,4.9,4.8S2091.8,438.2,2091.8,435.2z"/>
		<path fill="#565A5E" d="M2133.4,423.4v7.3l-14.3,34.4h-10l14.5-33.3h-17.8v-8.3H2133.4z"/>
		<path fill="#565A5E" d="M2152.3,422.5c11.9,0,16.1,8.9,16.1,21.1c0,12.3-4.2,21.3-16.1,21.3s-16.1-8.9-16.1-21.3
			C2136.2,431.4,2140.4,422.5,2152.3,422.5z M2152.3,431.6c-5.8,0-6.5,5.6-6.5,12c0,6.6,0.7,12.1,6.5,12.1s6.5-5.5,6.5-12.1
			C2158.7,437.2,2158.1,431.6,2152.3,431.6z"/>
		<path fill="#565A5E" d="M2186.9,422.4c8.8,0,13.5,5,13.5,11.3c0,5.5-3.4,8.4-6.3,9.4v0.2c4.2,1.4,7,4.6,7,10.1
			c0,7-5,12.1-13.8,12.1c-8.7,0-15-4.1-15.3-13.5h9.5c0.1,3.3,1.8,5.4,5.4,5.4c3,0,4.7-1.9,4.7-4.7c0-3.7-2.2-5.2-7.3-5.2h-1.8v-7.9
			h1.8c3.3,0,6.5-0.8,6.5-4.6c0-2.8-1.7-4.3-4.3-4.3c-3.1,0-4.3,2.3-4.5,4.6h-9.5C2173,426.9,2178.4,422.4,2186.9,422.4z"/>
		<path fill="#565A5E" d="M2226.4,434.6c-0.6-2.7-1.9-4.2-4.9-4.2c-4.4,0-6.1,3.7-6.2,11.8c1.7-2.7,5-4.3,8.9-4.3
			c7.3,0,12.4,4.7,12.4,13.4c0,8.3-5.3,14-14.2,14c-12.6,0-15.7-8.9-15.7-21.4c0-14.3,4.5-21.4,15.3-21.4c9,0,13,5.9,13.5,12.1
			H2226.4z M2216.2,451.2c0,3.7,2.1,5.8,5.8,5.8c3.3,0,5.4-2.1,5.4-5.7c0-3.5-1.9-5.8-5.5-5.8
			C2218.8,445.6,2216.2,447.4,2216.2,451.2z"/>
		<path fill="#565A5E" d="M2242.5,433.7c0-5.9,4.6-11.2,14.5-11.2s14.4,5.3,14.4,11.2c0,4.3-2.2,7.3-5.4,9c4.1,1.9,6.4,5.4,6.4,10.2
			c0,8.3-6.9,13-15.4,13s-15.4-4.7-15.4-13c0-4.7,2.3-8.3,6.3-10.2C2244.7,440.9,2242.5,438.1,2242.5,433.7z M2251,452.4
			c0,3.1,2.2,5.5,6,5.5c3.7,0,5.9-2.4,5.9-5.5c0-3.4-2.4-5.5-5.9-5.5C2253.5,446.9,2251,448.8,2251,452.4z M2261.9,435.2
			c0-3.1-2-4.9-4.9-4.9s-4.9,1.8-4.9,5c0,3,2.1,4.8,4.9,4.8S2261.9,438.2,2261.9,435.2z"/>
		<path fill="#565A5E" d="M2297.5,434.6c-0.6-2.7-1.9-4.2-4.9-4.2c-4.4,0-6.1,3.7-6.2,11.8c1.7-2.7,5-4.3,8.9-4.3
			c7.3,0,12.4,4.7,12.4,13.4c0,8.3-5.3,14-14.2,14c-12.6,0-15.7-8.9-15.7-21.4c0-14.3,4.5-21.4,15.3-21.4c9,0,13,5.9,13.5,12.1
			H2297.5z M2287.3,451.2c0,3.7,2.1,5.8,5.8,5.8c3.3,0,5.4-2.1,5.4-5.7c0-3.5-1.9-5.8-5.5-5.8
			C2289.9,445.6,2287.3,447.4,2287.3,451.2z"/>
		<path fill="#565A5E" d="M2316.8,432.4h-5.7v-9.1h15.8V465h-10.2V432.4z"/>
		<path fill="#565A5E" d="M2332.2,457.2c8.9-7.3,18.3-14.6,18.3-21.6c0-3-1.4-5-4.3-5c-2.9,0-4.6,2.3-4.6,6.2h-9.4
			c0.3-10.1,6.9-14.5,14.5-14.5c9.5,0,13.7,5.5,13.7,12.6c0,9.1-8.2,16.5-14.8,21.5h15.4v7.9h-28.7V457.2z"/>
	</g>
</g>
<g>
	<path fill="#523D4E" d="M104.7,135.1l-17-22.1c-0.3-0.4-0.9-0.5-1.3-0.2l-8.7,6.7c-0.4,0.3-0.5,0.9-0.2,1.3l0.2,0.2
		c-6.1-0.5-17.1-8.2-23.5-16.4c-6.3-8.3-10.9-20.9-9.9-26.9l0.2,0.2c0.3,0.4,0.9,0.5,1.3,0.2l8.7-6.7c0.4-0.3,0.5-0.9,0.2-1.3
		L37.5,48c-0.3-0.4-0.9-0.5-1.3-0.2l-8.7,6.7c-0.4,0.3-0.5,0.9-0.2,1.3l0,0c-4.6,4.8-6.2,10.4-4.6,18.3c0.8,4,2.9,19.8,18.6,40.3
		c15.8,20.4,30.7,26.4,34.3,28.2c7.2,3.6,13,3.5,18.9,0.2l0,0c0.3,0.4,0.9,0.5,1.3,0.2l8.7-6.7C105,136.1,105.1,135.5,104.7,135.1z"
		/>
	<path fill="#635261" d="M113.9,67c16.2,0,29.2,10.4,29.2,23.3c0,3.4-0.9,6.7-2.6,9.6c3.1,8.9,9.4,11.7,9.4,11.7
		c-10.6,0.6-14.7-2.6-16.1-4.3c-5.2,3.9-12.2,6.3-20,6.3c-16.2,0-29.2-10.4-29.2-23.3C84.6,77.4,97.7,67,113.9,67z"/>
	<path fill="#523D4E" d="M98.1,27.5c-20.5,0-37,13.2-37,29.5c0,4.4,1.2,8.5,3.3,12.2c-3.9,11.3-11.9,14.8-11.9,14.8
		c13.5,0.7,18.6-3.2,20.4-5.5c6.6,4.9,15.5,8,25.3,8c20.5,0,37-13.2,37-29.5C135.2,40.7,118.6,27.5,98.1,27.5z"/>
	<g>
		<path fill="#FFFFFF" d="M110.6,48c0,6.7-8.4,8.6-8.4,11.2v1h-8.4v-2.5c0-3.6,6.4-5.6,6.4-9.6c0-1.8-1.2-3.4-3.2-3.4
			c-2.6,0-3.2,2.1-3.2,4.1c0,0.4,0,0.9,0,1.3h-9c0-0.6-0.1-1.2-0.1-1.9C84.6,42,90.3,38,98,38C105.5,38,110.6,42,110.6,48z
			 M102.9,72.4h-9.7v-9.1h9.7V72.4z"/>
	</g>
	<g>
		<circle fill="#FFFFFF" cx="106.3" cy="100.5" r="2.8"/>
		<circle fill="#FFFFFF" cx="114.8" cy="100.5" r="2.8"/>
		<circle fill="#FFFFFF" cx="123.3" cy="100.5" r="2.8"/>
	</g>
</g>
<g>
</g>
<g>
</g>
<g>
</g>
<g>
</g>
<g>
</g>
</svg>
