<?xml version="1.0" encoding="utf-8"?>
<!-- Generator: Adobe Illustrator 17.1.0, SVG Export Plug-In . SVG Version: 6.00 Build 0)  -->
<!DOCTYPE svg PUBLIC "-//W3C//DTD SVG 1.1//EN" "http://www.w3.org/Graphics/SVG/1.1/DTD/svg11.dtd">
<svg version="1.1" id="Layer_1" xmlns="http://www.w3.org/2000/svg" xmlns:xlink="http://www.w3.org/1999/xlink" x="0px" y="0px"
	 viewBox="0 0 170.7 51.5" enable-background="new 0 0 170.7 51.5" xml:space="preserve">
<g opacity="0.4">
	<path d="M1363.4,315.3h-8.4v-3.5l7.9-11.3h4.8v11.1h2.1v3.7h-2.1v3.3h-4.3V315.3z M1363.7,311.6v-6.4l-4.2,6.4H1363.7z"/>
	<path d="M1380.9,305.2c-0.3-1.2-0.9-1.9-2.1-1.9c-1.9,0-2.7,1.6-2.7,5.2c0.7-1.2,2.2-1.9,3.9-1.9c3.2,0,5.4,2.1,5.4,5.9
		c0,3.6-2.3,6.1-6.2,6.1c-5.5,0-6.9-3.9-6.9-9.4c0-6.3,2-9.4,6.7-9.4c3.9,0,5.7,2.6,5.9,5.3H1380.9z M1376.4,312.5
		c0,1.6,0.9,2.6,2.6,2.6c1.5,0,2.4-0.9,2.4-2.5c0-1.5-0.8-2.5-2.4-2.5C1377.5,310,1376.4,310.8,1376.4,312.5z"/>
	<path d="M1388.7,314.2h4.4l-3.2,8.1h-2.8L1388.7,314.2z"/>
	<path d="M1399.7,313.2c0.3,1.3,1,2,2.3,2c1.8,0,2.4-1.5,2.4-5c-0.7,1-2.1,1.6-3.6,1.6c-3.1,0-5.5-2-5.5-5.8c0-3.7,2.4-6.1,6.3-6.1
		c5.2,0,6.7,3.5,6.7,9.1c0,6.2-1.5,9.7-6.4,9.7c-4,0-5.9-2.6-6.1-5.4H1399.7z M1404,306c0-1.6-1-2.5-2.4-2.5c-1.5,0-2.4,1-2.4,2.5
		c0,1.4,0.8,2.4,2.5,2.4C1403.1,308.4,1404,307.5,1404,306z"/>
	<path d="M1415.1,313.2c0.3,1.3,1,2,2.3,2c1.8,0,2.4-1.5,2.4-5c-0.7,1-2.1,1.6-3.6,1.6c-3.1,0-5.5-2-5.5-5.8c0-3.7,2.4-6.1,6.3-6.1
		c5.2,0,6.7,3.5,6.7,9.1c0,6.2-1.5,9.7-6.4,9.7c-4,0-5.9-2.6-6.1-5.4H1415.1z M1419.4,306c0-1.6-1-2.5-2.4-2.5c-1.5,0-2.4,1-2.4,2.5
		c0,1.4,0.8,2.4,2.5,2.4C1418.5,308.4,1419.4,307.5,1419.4,306z"/>
	<path d="M1430.4,313.2c0.3,1.3,1,2,2.3,2c1.8,0,2.4-1.5,2.4-5c-0.7,1-2.1,1.6-3.6,1.6c-3.1,0-5.5-2-5.5-5.8c0-3.7,2.4-6.1,6.3-6.1
		c5.2,0,6.7,3.5,6.7,9.1c0,6.2-1.5,9.7-6.4,9.7c-4,0-5.9-2.6-6.1-5.4H1430.4z M1434.8,306c0-1.6-1-2.5-2.4-2.5c-1.5,0-2.4,1-2.4,2.5
		c0,1.4,0.8,2.4,2.5,2.4C1433.9,308.4,1434.8,307.5,1434.8,306z"/>
</g>
<g>
	<g>
		<path d="M81,6.5h10.5v3.1h-6.6V13h4.9v3h-4.9v6.5H81V6.5z"/>
		<path d="M98,22.6H94V9.8H98v2.1c0.9-1.4,2.3-2.3,4-2.3v4.2h-1.1c-1.9,0-2.9,0.6-2.9,2.8V22.6z"/>
		<path d="M110,22.8c-3.8,0-6.5-2.5-6.5-6.6s2.7-6.6,6.5-6.6c3.7,0,6.4,2.5,6.4,6.4c0,0.4,0,0.8-0.1,1.1h-8.9
			c0.1,1.7,1.2,2.5,2.4,2.5c1.1,0,1.7-0.6,2-1.2h4.2C115.5,20.8,113.2,22.8,110,22.8z M107.4,15h4.9c0-1.4-1.1-2.2-2.4-2.2
			C108.7,12.7,107.7,13.5,107.4,15z"/>
		<path d="M124.6,22.8c-3.8,0-6.5-2.5-6.5-6.6s2.7-6.6,6.5-6.6c3.7,0,6.4,2.5,6.4,6.4c0,0.4,0,0.8-0.1,1.1H122
			c0.1,1.7,1.2,2.5,2.4,2.5c1.1,0,1.7-0.6,2-1.2h4.2C130,20.8,127.8,22.8,124.6,22.8z M122,15h4.9c0-1.4-1.1-2.2-2.4-2.2
			C123.3,12.7,122.3,13.5,122,15z"/>
		<path d="M93.5,36.1c0,4.5-2.9,7.2-7.7,7.2h-4.5V28.8h4.5C90.5,28.8,93.5,31.6,93.5,36.1z M85.7,41.8c3.8,0,5.8-2.1,5.8-5.7
			c0-3.6-2-5.8-5.8-5.8h-2.6v11.4H85.7z"/>
		<path d="M101.3,43.6c-3.3,0-5.7-2.3-5.7-5.9c0-3.6,2.3-5.9,5.7-5.9c3.3,0,5.5,2.3,5.5,5.5c0,0.4,0,0.8-0.1,1.1h-9.1
			c0.1,2.3,1.8,3.6,3.7,3.6c1.7,0,2.8-0.9,3.2-2.1h2C106,41.9,104.2,43.6,101.3,43.6z M97.6,36.8h7.2c0-2.2-1.7-3.5-3.6-3.5
			C99.4,33.4,97.9,34.6,97.6,36.8z"/>
		<path d="M109.8,27.9h1.9v15.5h-1.9V27.9z"/>
		<path d="M115,28.8c0-0.7,0.6-1.3,1.3-1.3c0.7,0,1.3,0.6,1.3,1.3s-0.6,1.3-1.3,1.3C115.6,30.1,115,29.5,115,28.8z M115.3,31.9h1.9
			v11.4h-1.9V31.9z"/>
		<path d="M121.6,31.9l3.6,9.7l3.6-9.7h2l-4.5,11.4H124l-4.5-11.4H121.6z"/>
		<path d="M138,43.6c-3.3,0-5.7-2.3-5.7-5.9c0-3.6,2.3-5.9,5.7-5.9c3.3,0,5.5,2.3,5.5,5.5c0,0.4,0,0.8-0.1,1.1h-9.1
			c0.1,2.3,1.8,3.6,3.7,3.6c1.7,0,2.8-0.9,3.2-2.1h2C142.6,41.9,140.8,43.6,138,43.6z M134.3,36.8h7.2c0-2.2-1.7-3.5-3.6-3.5
			C136,33.4,134.5,34.6,134.3,36.8z"/>
		<path d="M148.3,43.4h-1.9V31.9h1.9v1.9c0.6-1.3,1.9-2.1,3.7-2.1v2h-0.5c-1.8,0-3.2,0.8-3.2,3.5V43.4z"/>
		<path d="M162.5,31.9h2l-6.9,16.8h-2l2.3-5.5l-4.6-11.3h2.1l3.6,9.3L162.5,31.9z"/>
	</g>
	<g>
		<path d="M53.1,10.9h-4.2c-0.3-1.2-0.9-2.3-1.9-3.1c-1-0.8-2.2-1.2-3.5-1.2H20.2c-1.5,0-2.9,0.6-3.9,1.6c-1,1-1.6,2.4-1.6,3.9v1.1
			h-2.9c-0.8,0-1.4,0.6-1.4,1.4c0,0.8,0.6,1.4,1.4,1.4h2.9v7.4h-2.9v0c-0.8,0-1.4,0.6-1.4,1.4c0,0.8,0.6,1.4,1.4,1.4h2.9v11.3
			c0,1.5,0.6,2.9,1.6,3.9s2.4,1.6,3.9,1.6h1c0.4,2.1,1.8,3.8,3.7,4.8c1.9,0.9,4.1,0.9,6,0c1.9-0.9,3.3-2.7,3.7-4.8h8.9
			c0.4,2.1,1.8,3.8,3.7,4.8c1.9,0.9,4.1,0.9,6,0c1.9-0.9,3.3-2.7,3.7-4.8h0.9c1.5,0,2.9-0.6,3.9-1.6c1-1,1.6-2.4,1.6-3.9
			C63.3,18.5,60.4,10.9,53.1,10.9L53.1,10.9z M49,13.6h4.1c2.8,0,5.6,1.6,6.8,11.2H49.4c-0.3,0-0.5-0.2-0.5-0.5L49,13.6z M27.9,45.5
			c-1.1,0-2.1-0.4-2.9-1.2c-0.8-0.8-1.2-1.8-1.2-2.9c0-1.1,0.4-2.1,1.2-2.9c0.8-0.8,1.8-1.2,2.9-1.2c1.1,0,2.1,0.4,2.9,1.2
			c0.8,0.8,1.2,1.8,1.2,2.9c0,1.1-0.4,2.1-1.2,2.9C30,45,29,45.5,27.9,45.5L27.9,45.5z M50.2,45.5c-1.1,0-2.1-0.4-2.9-1.2
			c-0.8-0.8-1.2-1.8-1.2-2.9c0-1.1,0.4-2.1,1.2-2.9c0.8-0.8,1.8-1.2,2.9-1.2c1.1,0,2.1,0.4,2.9,1.2c0.8,0.8,1.2,1.8,1.2,2.9
			c0,1.1-0.4,2.1-1.2,2.9C52.3,45,51.3,45.5,50.2,45.5L50.2,45.5z M57.8,40h-0.9c-0.4-2.1-1.8-3.8-3.7-4.8s-4.1-0.9-6,0
			c-1.9,0.9-3.3,2.7-3.7,4.8h-8.9c-0.4-2.1-1.8-3.8-3.7-4.8c-1.9-0.9-4.1-0.9-6,0c-1.9,0.9-3.3,2.7-3.7,4.8h-1
			c-0.7,0-1.4-0.3-1.9-0.8c-0.5-0.5-0.8-1.2-0.8-1.9V26h4.1c0.8,0,1.4-0.6,1.4-1.4c0-0.8-0.6-1.4-1.4-1.4h-4.1v-7.4h7.7v0
			c0.8,0,1.4-0.6,1.4-1.4c0-0.8-0.6-1.4-1.4-1.4h-7.7V12c0-0.7,0.3-1.4,0.8-1.9c0.5-0.5,1.2-0.8,1.9-0.8h23.2c0.7,0,1.4,0.3,1.9,0.8
			c0.5,0.5,0.8,1.2,0.8,1.9v12.3c0,0.9,0.3,1.7,0.9,2.3c0.6,0.6,1.4,0.9,2.3,0.9h10.8c0.2,2.7,0.4,5.9,0.4,9.7h0
			c0,0.7-0.3,1.4-0.8,1.9S58.5,40,57.8,40L57.8,40z M13.2,19.4c0-0.8-0.6-1.4-1.4-1.4h-4c-0.8,0-1.4,0.6-1.4,1.4
			c0,0.8,0.6,1.4,1.4,1.4h4h0c0.4,0,0.7-0.1,1-0.4C13,20.1,13.2,19.7,13.2,19.4z M26.1,28.2h-4.7h0c-0.8,0-1.4,0.6-1.4,1.4
			c0,0.8,0.6,1.4,1.4,1.4h4.7h0c0.8,0,1.4-0.6,1.4-1.4C27.5,28.8,26.9,28.2,26.1,28.2z"/>
		<path d="M50.2,48.5c-1.1,0-2.2-0.3-3.1-0.7c-1.9-0.9-3.3-2.7-3.8-4.7h-8.5c-0.5,2-1.9,3.8-3.8,4.7c-1.9,0.9-4.3,0.9-6.2,0
			c-1.9-0.9-3.3-2.7-3.8-4.7h-0.8c-1.5,0-3-0.6-4.1-1.7s-1.7-2.5-1.7-4.1v-11h-2.7c-0.9,0-1.6-0.7-1.6-1.6s0.7-1.6,1.6-1.6l2.7,0
			v-6.9h-2.7c-0.9,0-1.6-0.7-1.6-1.6s0.7-1.6,1.6-1.6h2.7V12c0-1.5,0.6-3,1.7-4.1c1.1-1.1,2.5-1.7,4.1-1.7h23.2
			c1.3,0,2.6,0.5,3.6,1.3c1,0.8,1.7,1.9,2,3.1h4c3.8,0,6.4,2.1,8.1,6.3c1.6,4.2,2.4,10.7,2.4,20.3c0,1.5-0.6,3-1.7,4.1
			c-1.1,1.1-2.5,1.7-4.1,1.7h-0.7c-0.5,2-1.9,3.8-3.8,4.7C52.3,48.2,51.2,48.5,50.2,48.5z M34.4,42.5h9.3l0,0.2
			c0.4,2,1.7,3.7,3.5,4.6c1.8,0.9,4,0.9,5.8,0c1.8-0.9,3.1-2.6,3.5-4.6l0-0.2h1.1c1.4,0,2.7-0.5,3.7-1.5c1-1,1.5-2.3,1.5-3.7
			c0-18.6-2.9-26.1-10-26.1l-4.4,0l0-0.2c-0.2-1.2-0.9-2.2-1.8-3c-0.9-0.8-2.1-1.2-3.3-1.2H20.2c-1.4,0-2.7,0.5-3.7,1.5
			c-1,1-1.5,2.3-1.5,3.7v1.4h-3.2c-0.6,0-1.1,0.5-1.1,1.1c0,0.6,0.5,1.1,1.1,1.1H15v7.9h-3.2h0c-0.3,0-0.6,0.1-0.8,0.3
			s-0.3,0.5-0.3,0.8c0,0.6,0.5,1.1,1.1,1.1H15v11.5c0,1.4,0.5,2.7,1.5,3.7s2.3,1.5,3.7,1.5h1.2l0,0.2c0.4,2,1.7,3.7,3.5,4.6
			c1.8,0.9,4,0.9,5.8,0c1.8-0.9,3.1-2.6,3.5-4.6L34.4,42.5z M50.2,45.7c-1.2,0-2.2-0.5-3.1-1.3c-0.8-0.8-1.3-1.9-1.3-3.1
			c0-1.1,0.5-2.3,1.3-3.1c0.8-0.8,1.9-1.3,3.1-1.3h0c1.2,0,2.2,0.4,3.1,1.3s1.3,1.9,1.3,3.1c0,1.2-0.5,2.2-1.3,3.1
			C52.4,45.3,51.3,45.7,50.2,45.7z M50.2,37.6c-1,0-2,0.4-2.7,1.1c-0.7,0.7-1.1,1.7-1.1,2.7c0,1,0.4,2,1.1,2.7
			c0.7,0.7,1.7,1.1,2.7,1.1c1,0,2-0.4,2.7-1.1s1.1-1.7,1.1-2.7c0-1-0.4-2-1.1-2.7C52.2,38,51.2,37.6,50.2,37.6L50.2,37.6z
			 M27.9,45.7c-1.2,0-2.2-0.5-3.1-1.3c-0.8-0.8-1.3-1.9-1.3-3.1c0-1.2,0.5-2.2,1.3-3.1c0.8-0.8,1.9-1.3,3.1-1.3h0
			c1.1,0,2.3,0.5,3.1,1.3c0.8,0.8,1.3,1.9,1.3,3.1c0,1.2-0.5,2.2-1.3,3.1C30.1,45.3,29,45.7,27.9,45.7z M27.9,37.6
			c-1,0-2,0.4-2.7,1.1c-0.7,0.7-1.1,1.7-1.1,2.7c0,1,0.4,2,1.1,2.7c0.7,0.7,1.7,1.1,2.7,1.1c1,0,2-0.4,2.7-1.1
			c0.7-0.7,1.1-1.7,1.1-2.7c0-1-0.4-2-1.1-2.7C29.9,38,28.9,37.6,27.9,37.6L27.9,37.6z M57.8,40.3h-1.1l0-0.2
			c-0.4-2-1.7-3.7-3.5-4.6c-1.8-0.9-4-0.9-5.8,0c-1.8,0.9-3.1,2.6-3.5,4.6l0,0.2h-9.3l0-0.2c-0.4-2-1.7-3.7-3.5-4.6
			c-1.8-0.9-4-0.9-5.8,0c-1.8,0.9-3.1,2.6-3.5,4.6l0,0.2h-1.2c-0.8,0-1.6-0.3-2.1-0.9c-0.6-0.6-0.9-1.3-0.9-2.1V25.8h4.4
			c0.6,0,1.1-0.5,1.1-1.1c0-0.6-0.5-1.1-1.1-1.1h-4.4v-7.9h8h0c0.3,0,0.6-0.1,0.8-0.3s0.3-0.5,0.3-0.8c0-0.6-0.5-1.1-1.1-1.1h-8V12
			c0-0.8,0.3-1.6,0.9-2.1C18.7,9.3,19.4,9,20.2,9h23.2c0.8,0,1.6,0.3,2.1,0.9c0.6,0.6,0.9,1.3,0.9,2.1v12.3c0,0.8,0.3,1.5,0.9,2.1
			c0.6,0.6,1.3,0.9,2.1,0.9h11l0,0.2c0.2,2.8,0.4,6,0.4,9.7c0,0.8-0.3,1.6-0.9,2.1S58.6,40.3,57.8,40.3L57.8,40.3z M57.1,39.8h0.7
			c0.7,0,1.3-0.3,1.8-0.7c0.5-0.5,0.7-1.1,0.7-1.8c0-3.6-0.1-6.7-0.3-9.5H49.4c-0.9,0-1.8-0.4-2.4-1c-0.6-0.6-1-1.5-1-2.4V12
			c0-0.7-0.3-1.3-0.7-1.8c-0.5-0.5-1.1-0.7-1.8-0.7H20.2c-0.7,0-1.3,0.3-1.8,0.7c-0.5,0.5-0.7,1.1-0.7,1.8v0.9h7.5
			c0.9,0,1.6,0.7,1.6,1.6s-0.7,1.6-1.6,1.6l-7.5,0V23h3.9c0.9,0,1.6,0.7,1.6,1.6s-0.7,1.6-1.6,1.6h-3.9v11c0,0.7,0.3,1.3,0.7,1.8
			c0.5,0.5,1.1,0.7,1.8,0.7H21c0.5-2.1,1.9-3.8,3.8-4.7c1.9-0.9,4.3-0.9,6.2,0c1.9,0.9,3.3,2.7,3.8,4.7h8.5c0.5-2.1,1.9-3.8,3.8-4.7
			c1.9-0.9,4.3-0.9,6.2,0C55.2,36,56.6,37.7,57.1,39.8z M26.1,31.2h-4.7c-0.9,0-1.6-0.7-1.6-1.6s0.7-1.6,1.6-1.6h4.7
			c0.9,0,1.6,0.7,1.6,1.6S27,31.2,26.1,31.2z M21.4,28.4c-0.6,0-1.1,0.5-1.1,1.1c0,0.6,0.5,1.1,1.1,1.1h4.7c0.6,0,1.1-0.5,1.1-1.1
			c0-0.6-0.5-1.1-1.1-1.1H21.4z M60.2,25.1H49.4c-0.4,0-0.7-0.3-0.7-0.7l0-11h4.4c2.8,0,5.8,1.4,7.1,11.4L60.2,25.1z M49.2,13.9
			l0,10.5c0,0.1,0.1,0.2,0.2,0.2h10.2c-1.3-9.4-4-10.7-6.5-10.7H49.2z M11.8,21h-4c-0.9,0-1.6-0.7-1.6-1.6s0.7-1.6,1.6-1.6h4
			c0.9,0,1.6,0.7,1.6,1.6c0,0.4-0.2,0.8-0.5,1.2C12.7,20.8,12.2,21,11.8,21z M7.9,18.2c-0.6,0-1.1,0.5-1.1,1.1
			c0,0.6,0.5,1.1,1.1,1.1h4c0.3,0,0.6-0.1,0.8-0.3c0.2-0.2,0.3-0.5,0.3-0.8c0-0.6-0.5-1.1-1.1-1.1H7.9z"/>
	</g>
</g>
<g>
</g>
<g>
</g>
<g>
</g>
<g>
</g>
<g>
</g>
</svg>
