<?xml version="1.0" encoding="utf-8"?>
<!-- Generator: Adobe Illustrator 17.1.0, SVG Export Plug-In . SVG Version: 6.00 Build 0)  -->
<!DOCTYPE svg PUBLIC "-//W3C//DTD SVG 1.1//EN" "http://www.w3.org/Graphics/SVG/1.1/DTD/svg11.dtd">
<svg version="1.1" id="Layer_1" xmlns="http://www.w3.org/2000/svg" xmlns:xlink="http://www.w3.org/1999/xlink" x="0px" y="0px"
	 viewBox="0 0 170.7 51.5" enable-background="new 0 0 170.7 51.5" xml:space="preserve">
<g opacity="0.4">
	<path d="M1363.4,315.3h-8.4v-3.5l7.9-11.3h4.8v11.1h2.1v3.7h-2.1v3.3h-4.3V315.3z M1363.7,311.6v-6.4l-4.2,6.4H1363.7z"/>
	<path d="M1380.9,305.2c-0.3-1.2-0.9-1.9-2.1-1.9c-1.9,0-2.7,1.6-2.7,5.2c0.7-1.2,2.2-1.9,3.9-1.9c3.2,0,5.4,2.1,5.4,5.9
		c0,3.6-2.3,6.1-6.2,6.1c-5.5,0-6.9-3.9-6.9-9.4c0-6.3,2-9.4,6.7-9.4c3.9,0,5.7,2.6,5.9,5.3H1380.9z M1376.4,312.5
		c0,1.6,0.9,2.6,2.6,2.6c1.5,0,2.4-0.9,2.4-2.5c0-1.5-0.8-2.5-2.4-2.5C1377.5,310,1376.4,310.8,1376.4,312.5z"/>
	<path d="M1388.7,314.2h4.4l-3.2,8.1h-2.8L1388.7,314.2z"/>
	<path d="M1399.7,313.2c0.3,1.3,1,2,2.3,2c1.8,0,2.4-1.5,2.4-5c-0.7,1-2.1,1.6-3.6,1.6c-3.1,0-5.5-2-5.5-5.8c0-3.7,2.4-6.1,6.3-6.1
		c5.2,0,6.7,3.5,6.7,9.1c0,6.2-1.5,9.7-6.4,9.7c-4,0-5.9-2.6-6.1-5.4H1399.7z M1404,306c0-1.6-1-2.5-2.4-2.5c-1.5,0-2.4,1-2.4,2.5
		c0,1.4,0.8,2.4,2.5,2.4C1403.1,308.4,1404,307.5,1404,306z"/>
	<path d="M1415.1,313.2c0.3,1.3,1,2,2.3,2c1.8,0,2.4-1.5,2.4-5c-0.7,1-2.1,1.6-3.6,1.6c-3.1,0-5.5-2-5.5-5.8c0-3.7,2.4-6.1,6.3-6.1
		c5.2,0,6.7,3.5,6.7,9.1c0,6.2-1.5,9.7-6.4,9.7c-4,0-5.9-2.6-6.1-5.4H1415.1z M1419.4,306c0-1.6-1-2.5-2.4-2.5c-1.5,0-2.4,1-2.4,2.5
		c0,1.4,0.8,2.4,2.5,2.4C1418.5,308.4,1419.4,307.5,1419.4,306z"/>
	<path d="M1430.4,313.2c0.3,1.3,1,2,2.3,2c1.8,0,2.4-1.5,2.4-5c-0.7,1-2.1,1.6-3.6,1.6c-3.1,0-5.5-2-5.5-5.8c0-3.7,2.4-6.1,6.3-6.1
		c5.2,0,6.7,3.5,6.7,9.1c0,6.2-1.5,9.7-6.4,9.7c-4,0-5.9-2.6-6.1-5.4H1430.4z M1434.8,306c0-1.6-1-2.5-2.4-2.5c-1.5,0-2.4,1-2.4,2.5
		c0,1.4,0.8,2.4,2.5,2.4C1433.9,308.4,1434.8,307.5,1434.8,306z"/>
</g>
<g>
	<g>
		<path d="M82.7,13.7h-4.3c-0.6-1.1-1.7-1.7-3.2-1.7c-2.5,0-4.2,1.8-4.2,4.6c0,3,1.7,4.7,4.5,4.7c1.9,0,3.3-1,3.9-2.8h-5v-2.9H83
			v3.6c-0.8,2.8-3.5,5.5-7.8,5.5c-4.8,0-8.2-3.4-8.2-8.2c0-4.8,3.4-8.2,8.2-8.2C79.1,8.4,81.9,10.4,82.7,13.7z"/>
		<path d="M91.3,24.9c-3.8,0-6.5-2.5-6.5-6.6s2.7-6.6,6.5-6.6c3.7,0,6.4,2.5,6.4,6.4c0,0.4,0,0.8-0.1,1.1h-8.9
			c0.1,1.7,1.2,2.5,2.4,2.5c1.1,0,1.7-0.6,2-1.2h4.2C96.8,22.9,94.5,24.9,91.3,24.9z M88.8,17h4.9c0-1.4-1.1-2.2-2.4-2.2
			C90,14.8,89,15.6,88.8,17z"/>
		<path d="M109.1,17.7c0-1.7-1-2.7-2.5-2.7c-1.5,0-2.5,1-2.5,2.7v6.9h-3.9V11.9h3.9v1.7c0.8-1.1,2.2-1.8,3.9-1.8c3,0,4.9,2,4.9,5.5
			v7.5h-3.9V17.7z"/>
		<path d="M128.8,24.7h-3.9v-1.7c-0.8,1.1-2.2,1.9-3.9,1.9c-3,0-5-2-5-5.5v-7.5h3.9v6.9c0,1.7,1,2.7,2.5,2.7c1.5,0,2.5-1,2.5-2.7
			v-6.9h3.9V24.7z"/>
		<path d="M131.7,8.4c0-1.2,0.9-2.1,2.3-2.1c1.4,0,2.3,0.9,2.3,2.1c0,1.2-0.9,2.1-2.3,2.1C132.6,10.5,131.7,9.6,131.7,8.4z
			 M132.1,11.9h3.9v12.8h-3.9V11.9z"/>
		<path d="M148.1,17.7c0-1.7-1-2.7-2.5-2.7c-1.5,0-2.5,1-2.5,2.7v6.9h-3.9V11.9h3.9v1.7c0.8-1.1,2.2-1.8,3.9-1.8c3,0,4.9,2,4.9,5.5
			v7.5h-3.9V17.7z"/>
		<path d="M160.9,24.9c-3.8,0-6.5-2.5-6.5-6.6s2.7-6.6,6.5-6.6c3.7,0,6.4,2.5,6.4,6.4c0,0.4,0,0.8-0.1,1.1h-8.9
			c0.1,1.7,1.2,2.5,2.4,2.5c1.1,0,1.7-0.6,2-1.2h4.2C166.4,22.9,164.1,24.9,160.9,24.9z M158.4,17h4.9c0-1.4-1.1-2.2-2.4-2.2
			C159.6,14.8,158.6,15.6,158.4,17z"/>
		<path d="M72.6,39.4h-2.8v6.1h-1.9V30.9h4.7c3.4,0,5,1.9,5,4.3C77.6,37.4,76.2,39.4,72.6,39.4z M72.6,37.8c2.2,0,3.1-1,3.1-2.7
			c0-1.7-0.9-2.7-3.1-2.7h-2.8v5.3H72.6z"/>
		<path d="M82.3,45.5h-1.9V34h1.9v1.9c0.6-1.3,1.9-2.1,3.7-2.1v2h-0.5c-1.8,0-3.2,0.8-3.2,3.5V45.5z"/>
		<path d="M93.6,45.7c-3.2,0-5.7-2.3-5.7-5.9c0-3.6,2.5-5.9,5.8-5.9c3.3,0,5.8,2.3,5.8,5.9C99.5,43.4,96.9,45.7,93.6,45.7z M93.6,44
			c2,0,3.9-1.4,3.9-4.3c0-2.9-1.9-4.2-3.9-4.2c-2,0-3.8,1.4-3.8,4.2C89.8,42.6,91.6,44,93.6,44z"/>
		<path d="M107.1,33.8c1.8,0,3.4,0.9,4.2,2.2V30h1.9v15.5h-1.9v-2.2c-0.7,1.3-2.2,2.3-4.3,2.3c-3.1,0-5.4-2.4-5.4-6
			C101.7,36.1,104,33.8,107.1,33.8z M107.5,35.5c-2.1,0-3.9,1.5-3.9,4.2c0,2.7,1.8,4.3,3.9,4.3s3.9-1.6,3.9-4.3
			C111.4,37.1,109.6,35.5,107.5,35.5z"/>
		<path d="M127.1,45.5h-1.9v-1.7c-0.7,1.2-2.1,1.9-3.7,1.9c-2.6,0-4.7-1.6-4.7-4.9V34h1.9v6.5c0,2.3,1.3,3.5,3.2,3.5
			c2,0,3.3-1.2,3.3-3.7V34h1.9V45.5z"/>
		<path d="M135.6,33.8c2.8,0,4.7,1.5,5.3,3.9h-2c-0.4-1.4-1.5-2.3-3.2-2.3c-2.1,0-3.6,1.5-3.6,4.3c0,2.8,1.5,4.3,3.6,4.3
			c1.7,0,2.8-0.8,3.2-2.3h2c-0.6,2.3-2.4,3.9-5.3,3.9c-3.3,0-5.6-2.3-5.6-5.9C130,36.1,132.3,33.8,135.6,33.8z"/>
		<path d="M144.2,35.6h-1.5V34h1.5v-2.9h1.9V34h3v1.6h-3v6.7c0,1.1,0.4,1.5,1.6,1.5h1.4v1.6h-1.7c-2,0-3.2-0.8-3.2-3.1V35.6z"/>
	</g>
	<g>
		<g>
			<path d="M37.4,10.7H7.9c-1.1,0-2.1,0.4-2.8,1.2c-0.8,0.8-1.2,1.8-1.2,2.8v29.5c0,1.1,0.4,2.1,1.2,2.8c0.8,0.8,1.8,1.2,2.8,1.2
				h29.5c1.1,0,2.1-0.4,2.8-1.2c0.8-0.8,1.2-1.8,1.2-2.8V14.7c0-1.1-0.4-2.1-1.2-2.8C39.5,11.1,38.5,10.7,37.4,10.7z M26.7,13.3
				v10.7h-8V13.3H26.7z M38.8,44.2c0,0.4-0.1,0.7-0.4,0.9c-0.3,0.3-0.6,0.4-0.9,0.4H7.9c-0.4,0-0.7-0.1-0.9-0.4
				c-0.3-0.3-0.4-0.6-0.4-0.9V14.7c0-0.4,0.1-0.7,0.4-0.9s0.6-0.4,0.9-0.4h8v10.7c0,0.7,0.3,1.4,0.8,1.9c0.5,0.5,1.2,0.8,1.9,0.8h8
				c0.7,0,1.4-0.3,1.9-0.8c0.5-0.5,0.8-1.2,0.8-1.9V13.3h8c0.4,0,0.7,0.1,0.9,0.4s0.4,0.6,0.4,0.9V44.2z"/>
			<path d="M37.4,48.7H7.9c-1.2,0-2.3-0.5-3.2-1.3c-0.9-0.9-1.3-2-1.3-3.2V14.7c0-1.2,0.5-2.3,1.3-3.2c0.9-0.9,2-1.3,3.2-1.3h29.5
				c1.2,0,2.3,0.5,3.2,1.3c0.9,0.9,1.3,2,1.3,3.2v29.5c0,1.2-0.5,2.3-1.3,3.2C39.8,48.2,38.6,48.7,37.4,48.7z M7.9,11.2
				c-0.9,0-1.8,0.4-2.5,1c-0.7,0.7-1,1.5-1,2.5v29.5c0,0.9,0.4,1.8,1,2.5c0.7,0.7,1.6,1,2.5,1h29.5c0.9,0,1.8-0.4,2.5-1
				c0.7-0.7,1-1.5,1-2.5V14.7c0-0.9-0.4-1.8-1-2.5c-0.7-0.7-1.5-1-2.5-1H7.9z M37.4,46H7.9c-0.5,0-1-0.2-1.3-0.5
				c-0.3-0.3-0.5-0.8-0.5-1.3V14.7c0-0.5,0.2-1,0.5-1.3C7,13,7.4,12.8,7.9,12.8h8.5v11.2c0,0.6,0.2,1.1,0.6,1.5
				c0.4,0.4,1,0.6,1.5,0.6h8c0.6,0,1.1-0.2,1.5-0.6c0.4-0.4,0.6-1,0.6-1.5V12.8h8.5c0.5,0,1,0.2,1.3,0.5c0.3,0.3,0.5,0.8,0.5,1.3
				v29.5c0,0.5-0.2,1-0.5,1.3C38.4,45.8,37.9,46,37.4,46z M7.9,13.8c-0.2,0-0.4,0.1-0.6,0.2c-0.2,0.2-0.2,0.4-0.2,0.6v29.5
				c0,0.2,0.1,0.4,0.2,0.6C7.5,44.9,7.7,45,7.9,45h29.5c0.2,0,0.4-0.1,0.6-0.2c0.2-0.2,0.2-0.4,0.2-0.6V14.7c0-0.2-0.1-0.4-0.2-0.6
				c-0.2-0.2-0.4-0.2-0.6-0.2h-7.5v10.2c0,0.8-0.3,1.6-0.9,2.3c-0.6,0.6-1.4,0.9-2.3,0.9h-8c-0.8,0-1.7-0.3-2.3-0.9
				c-0.6-0.6-0.9-1.4-0.9-2.3V13.8H7.9z M27.2,24.6h-9V12.8h9V24.6z M19.1,23.6h7v-9.7h-7V23.6z"/>
		</g>
	</g>
</g>
<g>
</g>
<g>
</g>
<g>
</g>
<g>
</g>
<g>
</g>
</svg>
