<?xml version="1.0" encoding="utf-8"?>
<!-- Generator: Adobe Illustrator 17.1.0, SVG Export Plug-In . SVG Version: 6.00 Build 0)  -->
<!DOCTYPE svg PUBLIC "-//W3C//DTD SVG 1.1//EN" "http://www.w3.org/Graphics/SVG/1.1/DTD/svg11.dtd">
<svg version="1.1" id="Layer_1" xmlns="http://www.w3.org/2000/svg" xmlns:xlink="http://www.w3.org/1999/xlink" x="0px" y="0px"
	 viewBox="0 0 45 45" enable-background="new 0 0 45 45" xml:space="preserve">
<g opacity="0.4">
	<path d="M1360.2,312h-8.4v-3.5l7.9-11.3h4.8v11.1h2.1v3.7h-2.1v3.3h-4.3V312z M1360.5,308.3V302l-4.2,6.4H1360.5z"/>
	<path d="M1377.6,301.9c-0.3-1.2-0.9-1.9-2.1-1.9c-1.9,0-2.7,1.6-2.7,5.2c0.7-1.2,2.2-1.9,3.9-1.9c3.2,0,5.4,2.1,5.4,5.9
		c0,3.6-2.3,6.1-6.2,6.1c-5.5,0-6.9-3.9-6.9-9.4c0-6.3,2-9.4,6.7-9.4c3.9,0,5.7,2.6,5.9,5.3H1377.6z M1373.1,309.2
		c0,1.6,0.9,2.6,2.6,2.6c1.5,0,2.4-0.9,2.4-2.5c0-1.5-0.8-2.5-2.4-2.5C1374.3,306.8,1373.1,307.6,1373.1,309.2z"/>
	<path d="M1385.5,311h4.4l-3.2,8.1h-2.8L1385.5,311z"/>
	<path d="M1396.4,309.9c0.3,1.3,1,2,2.3,2c1.8,0,2.4-1.5,2.4-5c-0.7,1-2.1,1.6-3.6,1.6c-3.1,0-5.5-2-5.5-5.8c0-3.7,2.4-6.1,6.3-6.1
		c5.2,0,6.7,3.5,6.7,9.1c0,6.2-1.5,9.7-6.4,9.7c-4,0-5.9-2.6-6.1-5.4H1396.4z M1400.8,302.8c0-1.6-1-2.5-2.4-2.5
		c-1.5,0-2.4,1-2.4,2.5c0,1.4,0.8,2.4,2.5,2.4C1399.9,305.1,1400.8,304.2,1400.8,302.8z"/>
	<path d="M1411.8,309.9c0.3,1.3,1,2,2.3,2c1.8,0,2.4-1.5,2.4-5c-0.7,1-2.1,1.6-3.6,1.6c-3.1,0-5.5-2-5.5-5.8c0-3.7,2.4-6.1,6.3-6.1
		c5.2,0,6.7,3.5,6.7,9.1c0,6.2-1.5,9.7-6.4,9.7c-4,0-5.9-2.6-6.1-5.4H1411.8z M1416.2,302.8c0-1.6-1-2.5-2.4-2.5
		c-1.5,0-2.4,1-2.4,2.5c0,1.4,0.8,2.4,2.5,2.4C1415.3,305.1,1416.2,304.2,1416.2,302.8z"/>
	<path d="M1427.2,309.9c0.3,1.3,1,2,2.3,2c1.8,0,2.4-1.5,2.4-5c-0.7,1-2.1,1.6-3.6,1.6c-3.1,0-5.5-2-5.5-5.8c0-3.7,2.4-6.1,6.3-6.1
		c5.2,0,6.7,3.5,6.7,9.1c0,6.2-1.5,9.7-6.4,9.7c-4,0-5.9-2.6-6.1-5.4H1427.2z M1431.6,302.8c0-1.6-1-2.5-2.4-2.5
		c-1.5,0-2.4,1-2.4,2.5c0,1.4,0.8,2.4,2.5,2.4C1430.7,305.1,1431.6,304.2,1431.6,302.8z"/>
</g>
<g>
	<g>
		<circle cx="30" cy="15.1" r="1.7"/>
		<path d="M22.6,15.6c-3.8,0-6.9,3.1-6.9,6.9c0,3.8,3.1,6.9,6.9,6.9c3.8,0,6.9-3.1,6.9-6.9C29.6,18.7,26.4,15.6,22.6,15.6z M22.6,27
			c-2.5,0-4.5-2-4.5-4.5s2-4.5,4.5-4.5c2.5,0,4.5,2,4.5,4.5S25.1,27,22.6,27z"/>
		<path d="M28.1,36.6H16.9c-4.7,0-8.5-3.8-8.5-8.5V16.9c0-4.7,3.8-8.5,8.5-8.5h11.3c4.7,0,8.5,3.8,8.5,8.5v11.3
			C36.6,32.8,32.8,36.6,28.1,36.6z M16.9,11c-3.2,0-5.8,2.6-5.8,5.8v11.3c0,3.2,2.6,5.8,5.8,5.8h11.3c3.2,0,5.8-2.6,5.8-5.8V16.9
			c0-3.2-2.6-5.8-5.8-5.8H16.9z"/>
	</g>
</g>
<g>
</g>
<g>
</g>
<g>
</g>
<g>
</g>
<g>
</g>
</svg>
