<?xml version="1.0" encoding="utf-8"?>
<!-- Generator: Adobe Illustrator 17.1.0, SVG Export Plug-In . SVG Version: 6.00 Build 0)  -->
<!DOCTYPE svg PUBLIC "-//W3C//DTD SVG 1.1//EN" "http://www.w3.org/Graphics/SVG/1.1/DTD/svg11.dtd">
<svg version="1.1" id="Layer_1" xmlns="http://www.w3.org/2000/svg" xmlns:xlink="http://www.w3.org/1999/xlink" x="0px" y="0px"
	 viewBox="0 0 69.3 68.3" enable-background="new 0 0 69.3 68.3" xml:space="preserve">
<path fill="#523D4E" d="M64.3,42.3L68.6,60c0.7,3.1-1.6,6.1-4.8,6.1h-58c-3.2,0-5.5-3-4.8-6.1l4.3-17.7c0.5-2.2,2.5-3.7,4.8-3.7
	l49.4,0C61.8,38.5,63.8,40.1,64.3,42.3z"/>
<path fill="#523D4E" d="M59.4,6.7v24.9H10.3V6.7L59.4,6.7z M63.3,32.4V5.9c0-1.7-1.4-3.1-3.1-3.1H9.5c-1.7,0-3.1,1.4-3.1,3.1v26.4
	c0,1.7,1.4,3.1,3.1,3.1h50.7C61.9,35.5,63.3,34.1,63.3,32.4z"/>
<g>
</g>
<g>
</g>
<g>
</g>
<g>
</g>
<g>
</g>
</svg>
