<?xml version="1.0" encoding="utf-8"?>
<!-- Generator: Adobe Illustrator 17.1.0, SVG Export Plug-In . SVG Version: 6.00 Build 0)  -->
<!DOCTYPE svg PUBLIC "-//W3C//DTD SVG 1.1//EN" "http://www.w3.org/Graphics/SVG/1.1/DTD/svg11.dtd">
<svg version="1.1" id="Layer_1" xmlns="http://www.w3.org/2000/svg" xmlns:xlink="http://www.w3.org/1999/xlink" x="0px" y="0px"
	 viewBox="0 0 640 841.9" enable-background="new 0 0 640 841.9" xml:space="preserve">
<g opacity="0.4">
	<path d="M4754.6,1430.7h-29.3v-12.2l27.5-39.4h16.7v38.7h7.3v12.9h-7.3v11.5h-15V1430.7z M4755.6,1417.8v-22.3l-14.6,22.3H4755.6z"
		/>
	<path d="M4815.6,1395.5c-1-4.2-3.1-6.6-7.3-6.6c-6.6,0-9.4,5.6-9.4,18.1c2.4-4.2,7.7-6.6,13.6-6.6c11.2,0,18.8,7.3,18.8,20.6
		c0,12.6-8,21.3-21.6,21.3c-19.2,0-24.1-13.6-24.1-32.8c0-22,7-32.8,23.4-32.8c13.6,0,19.9,9.1,20.6,18.5h-13.9V1395.5z
		 M4799.9,1420.9c0,5.6,3.1,9.1,9.1,9.1c5.2,0,8.4-3.1,8.4-8.7c0-5.2-2.8-8.7-8.4-8.7C4803.7,1412.2,4799.9,1415,4799.9,1420.9z"/>
	<path d="M4842.8,1426.9h15.3l-11.2,28.2h-9.8L4842.8,1426.9z"/>
	<path d="M4881.2,1423.4c1,4.5,3.5,7,8,7c6.3,0,8.4-5.2,8.4-17.4c-2.4,3.5-7.3,5.6-12.6,5.6c-10.8,0-19.2-7-19.2-20.2
		c0-12.9,8.4-21.3,22-21.3c18.1,0,23.4,12.2,23.4,31.7c0,21.6-5.2,33.8-22.3,33.8c-13.9,0-20.6-9.1-21.3-18.8h13.6V1423.4z
		 M4896.2,1398.3c0-5.6-3.5-8.7-8.4-8.7c-5.2,0-8.4,3.5-8.4,8.7c0,4.9,2.8,8.4,8.7,8.4C4893,1406.6,4896.2,1403.5,4896.2,1398.3z"/>
	<path d="M4934.9,1423.4c1,4.5,3.5,7,8,7c6.3,0,8.4-5.2,8.4-17.4c-2.4,3.5-7.3,5.6-12.6,5.6c-10.8,0-19.2-7-19.2-20.2
		c0-12.9,8.4-21.3,22-21.3c18.1,0,23.4,12.2,23.4,31.7c0,21.6-5.2,33.8-22.3,33.8c-13.9,0-20.6-9.1-21.3-18.8h13.6V1423.4z
		 M4949.9,1398.3c0-5.6-3.5-8.7-8.4-8.7c-5.2,0-8.4,3.5-8.4,8.7c0,4.9,2.8,8.4,8.7,8.4C4946.7,1406.6,4949.9,1403.5,4949.9,1398.3z"
		/>
	<path d="M4988.2,1423.4c1,4.5,3.5,7,8,7c6.3,0,8.4-5.2,8.4-17.4c-2.4,3.5-7.3,5.6-12.6,5.6c-10.8,0-19.2-7-19.2-20.2
		c0-12.9,8.4-21.3,22-21.3c18.1,0,23.4,12.2,23.4,31.7c0,21.6-5.2,33.8-22.3,33.8c-13.9,0-20.6-9.1-21.3-18.8h13.6V1423.4z
		 M5003.6,1398.3c0-5.6-3.5-8.7-8.4-8.7c-5.2,0-8.4,3.5-8.4,8.7c0,4.9,2.8,8.4,8.7,8.4C5000.4,1406.6,5003.6,1403.5,5003.6,1398.3z"
		/>
</g>
<path d="M273.4,411c-12.2,0-21.6-5.9-22-17.4h14.6c0.3,4.2,3.1,6.3,7,6.3c3.8,0,6.6-2.1,6.6-5.2c0-10.5-27.9-4.9-27.9-24.8
	c0-10.5,8.7-16.4,20.6-16.4c12.2,0,20.6,5.9,20.9,16.7h-14.6c-0.3-3.5-2.8-5.9-6.6-5.9c-3.1,0-5.9,1.7-5.9,5.2
	c0,9.8,27.9,5.2,27.9,24.1C294,403.3,286.7,411,273.4,411z"/>
<path d="M323.6,411c-13.3,0-22.7-8.7-22.7-23c0-14.3,9.4-23,22.7-23c12.9,0,22.3,8.7,22.3,22.3c0,1.4,0,2.8-0.3,3.8h-31
	c0.3,5.9,4.2,8.7,8.4,8.7c3.8,0,5.9-2.1,7-4.2h14.6C342.8,404.4,334.8,411,323.6,411z M314.9,383.8H332c0-4.9-3.8-7.7-8.4-7.7
	C319.1,376.1,315.6,378.9,314.9,383.8z"/>
<path d="M374.5,365.3c11.2,0,19.2,6.3,21.3,16.7h-14.6c-1-3.1-3.5-5.2-7-5.2c-4.9,0-8.4,3.8-8.4,11.2s3.5,11.2,8.4,11.2
	c3.8,0,5.9-1.7,7-5.2h14.6c-2.4,10.5-10.1,16.7-21.3,16.7c-13.3,0-22.3-8.7-22.3-23C352.2,374,361.3,365.3,374.5,365.3z"/>
<path d="M448.8,410.3h-13.6v-5.9c-2.8,3.8-7.7,6.6-13.6,6.6c-10.5,0-17.4-7-17.4-19.2v-26.2h13.6v24.1c0,5.9,3.5,9.4,8.7,9.4
	s8.7-3.5,8.7-9.4v-24.1h13.6V410.3z"/>
<path d="M473.9,410.3h-13.6v-44.6h13.6v7.3c3.1-4.9,8-8,13.9-8v15H484c-6.6,0-10.1,2.1-10.1,9.8V410.3z"/>
<path d="M516.1,411c-13.3,0-22.7-8.7-22.7-23c0-14.3,9.4-23,22.7-23c12.9,0,22.3,8.7,22.3,22.3c0,1.4,0,2.8-0.3,3.8h-31
	c0.3,5.9,4.2,8.7,8.4,8.7c3.8,0,5.9-2.1,7-4.2H537C534.9,404.4,526.9,411,516.1,411z M507.1,383.8h17.1c0-4.9-3.8-7.7-8.4-7.7
	C511.2,376.1,507.7,378.9,507.1,383.8z"/>
<path d="M24.8,352.1v75c0,31.4,27.2,60,67.3,75c40.5-15,67.7-43.6,67.7-75v-75H24.8z M39.8,367.1h105v60c0,25.5-21.3,47.8-52.3,60
	c-31.4-11.9-52.3-34.5-52.3-60L39.8,367.1L39.8,367.1z M92.4,453.2c-4.2,0-7.3,3.1-7.3,7.3c0,3.8,3.5,7.3,7.3,7.3
	c4.2,0,7.3-3.8,7.3-7.3C99.7,456.3,96.2,453.2,92.4,453.2z"/>
<g>
	<path d="M271.3,462.8h-9.2v20.6h-8.3v-50.7h17.5c12,0,17.9,6.9,17.9,15.1C289.3,455,284.5,462.8,271.3,462.8z M271.3,456
		c6.5,0,9.4-3.1,9.4-8.2c0-5.2-2.9-8.3-9.4-8.3h-9.2V456H271.3z"/>
	<path d="M313.4,442.5c6.8,0,11.4,3.2,13.9,6.5v-5.8h8.4v40.2h-8.4v-6c-2.6,3.4-7.4,6.6-14.1,6.6c-10.4,0-18.8-8.5-18.8-20.9
		S302.8,442.5,313.4,442.5z M315.1,449.7c-6.2,0-12.2,4.7-12.2,13.3s6,13.7,12.2,13.7c6.3,0,12.2-4.9,12.2-13.6
		C327.3,454.6,321.4,449.7,315.1,449.7z"/>
	<path d="M374.2,443.2h8.6l-24.6,59h-8.6l8.2-19.5l-15.8-39.5h9.3l11.3,30.6L374.2,443.2z"/>
	<path d="M446,460.9c0-7.4-4-11.2-10.1-11.2c-6.1,0-10.1,3.8-10.1,11.2v22.5h-8.2v-22.5c0-7.4-4-11.2-10.1-11.2
		c-6.1,0-10.1,3.8-10.1,11.2v22.5h-8.3v-40.2h8.3v4.6c2.7-3.3,7.1-5.2,11.9-5.2c6.3,0,11.7,2.7,14.4,7.9c2.5-4.9,8.2-7.9,14-7.9
		c9.4,0,16.5,5.9,16.5,17.1v23.7H446V460.9z"/>
	<path d="M482.1,484c-11.5,0-20-8.2-20-20.8s8.2-20.7,20-20.7c11.4,0,19.5,7.9,19.5,19.8c0,1.4-0.1,2.7-0.3,4.1h-30.7
		c0.6,6.6,5.3,10.6,11.4,10.6c5.1,0,7.9-2.5,9.5-5.6h9C498.2,478.4,491.9,484,482.1,484z M470.7,459.6h22.2
		c-0.1-6.2-5-10.1-11.2-10.1C476.1,449.5,471.6,453.3,470.7,459.6z"/>
	<path d="M538.3,460.9c0-7.4-4-11.2-10.1-11.2c-6.1,0-10.1,3.8-10.1,11.2v22.5h-8.3v-40.2h8.3v4.6c2.7-3.3,7.1-5.2,12-5.2
		c9.4,0,16.5,5.9,16.5,17.1v23.7h-8.2V460.9z"/>
	<path d="M558.4,449.9h-4.7v-6.8h4.7v-10h8.4v10h9.8v6.8h-9.8v22.2c0,3,1.2,4.2,4.7,4.2h5.1v6.9H570c-7.1,0-11.6-3-11.6-11.2V449.9z
		"/>
	<path d="M598.8,484c-9.6,0-16.4-5.7-16.8-13h8.6c0.3,3.3,3.4,6,8,6c4.8,0,7.4-2,7.4-4.8c0-7.9-23.3-3.4-23.3-18.1
		c0-6.4,6-11.6,15.5-11.6c9.1,0,15.1,4.9,15.5,12.9h-8.3c-0.3-3.5-3-5.9-7.5-5.9c-4.4,0-6.8,1.8-6.8,4.5c0,8.1,22.7,3.6,23.1,18.1
		C614.1,478.9,608.2,484,598.8,484z"/>
</g>
</svg>
